UNKNOWN
version=1
nRows=100
nColumns=4
inDegrees=no
endheader
time	knee_angle_r	rect_fem_r	vasti_r
      0.00000000	   -119.99999986	      0.01890075	      0.02046041
      1.00000000	   -118.68686855	      0.01923411	      0.02073325
      2.00000000	   -117.37373723	      0.01957739	      0.02101922
      3.00000000	   -116.06060592	      0.01992925	      0.02131686
      4.00000000	   -114.74747460	      0.02028839	      0.02162476
      5.00000000	   -113.43434329	      0.02065356	      0.02194151
      6.00000000	   -112.12121198	      0.02102353	      0.02226576
      7.00000000	   -110.80808066	      0.02139709	      0.02259620
      8.00000000	   -109.49494935	      0.02177307	      0.02293151
      9.00000000	   -108.18181803	      0.02215033	      0.02327044
     10.00000000	   -106.86868672	      0.02252774	      0.02361173
     11.00000000	   -105.55555540	      0.02290421	      0.02395417
     12.00000000	   -104.24242409	      0.02327865	      0.02429657
     13.00000000	   -102.92929277	      0.02365002	      0.02463774
     14.00000000	   -101.61616146	      0.02401726	      0.02497654
     15.00000000	   -100.30303015	      0.02437937	      0.02531182
     16.00000000	    -98.98989883	      0.02473541	      0.02564255
     17.00000000	    -97.67676752	      0.02508454	      0.02596774
     18.00000000	    -96.36363620	      0.02542570	      0.02628623
     19.00000000	    -95.05050489	      0.02575785	      0.02659684
     20.00000000	    -93.73737357	      0.02607992	      0.02689839
     21.00000000	    -92.42424226	      0.02639088	      0.02718972
     22.00000000	    -91.11111094	      0.02668967	      0.02746964
     23.00000000	    -89.79797963	      0.02697525	      0.02773693
     24.00000000	    -88.48484831	      0.02724647	      0.02799017
     25.00000000	    -87.17171700	      0.02750226	      0.02822799
     26.00000000	    -85.85858569	      0.02774152	      0.02844913
     27.00000000	    -84.54545437	      0.02796318	      0.02865230
     28.00000000	    -83.23232306	      0.02849176	      0.02883593
     29.00000000	    -81.91919174	      0.02931229	      0.02899243
     30.00000000	    -80.60606043	      0.03010697	      0.02969218
     31.00000000	    -79.29292911	      0.03087514	      0.03029643
     32.00000000	    -77.97979780	      0.03162069	      0.03087922
     33.00000000	    -76.66666648	      0.03234506	      0.03144195
     34.00000000	    -75.35353517	      0.03304920	      0.03198569
     35.00000000	    -74.04040385	      0.03373410	      0.03251153
     36.00000000	    -72.72727254	      0.03440081	      0.03302063
     37.00000000	    -71.41414123	      0.03505039	      0.03351417
     38.00000000	    -70.10100991	      0.03568398	      0.03399338
     39.00000000	    -68.78787860	      0.03630265	      0.03445946
     40.00000000	    -67.47474728	      0.03690751	      0.03491363
     41.00000000	    -66.16161597	      0.03749978	      0.03535722
     42.00000000	    -64.84848465	      0.03808069	      0.03579158
     43.00000000	    -63.53535334	      0.03865151	      0.03621809
     44.00000000	    -62.22222202	      0.03921352	      0.03663817
     45.00000000	    -60.90909071	      0.03976801	      0.03705322
     46.00000000	    -59.59595939	      0.04031607	      0.03746445
     47.00000000	    -58.28282808	      0.04085505	      0.03786919
     48.00000000	    -56.96969677	      0.04138342	      0.03826599
     49.00000000	    -55.65656545	      0.04190064	      0.03865445
     50.00000000	    -54.34343414	      0.04240624	      0.03903421
     51.00000000	    -53.03030282	      0.04289976	      0.03940492
     52.00000000	    -51.71717151	      0.04338077	      0.03976628
     53.00000000	    -50.40404019	      0.04384885	      0.04011799
     54.00000000	    -49.09090888	      0.04430363	      0.04045978
     55.00000000	    -47.77777756	      0.04474476	      0.04079142
     56.00000000	    -46.46464625	      0.04517193	      0.04111267
     57.00000000	    -45.15151493	      0.04558482	      0.04142335
     58.00000000	    -43.83838362	      0.04598317	      0.04172328
     59.00000000	    -42.52525231	      0.04636675	      0.04201231
     60.00000000	    -41.21212099	      0.04673533	      0.04229030
     61.00000000	    -39.89898968	      0.04708876	      0.04255720
     62.00000000	    -38.58585836	      0.04743516	      0.04282279
     63.00000000	    -37.27272705	      0.04778035	      0.04309420
     64.00000000	    -35.95959573	      0.04812389	      0.04337108
     65.00000000	    -34.64646442	      0.04846527	      0.04365302
     66.00000000	    -33.33333310	      0.04880391	      0.04393949
     67.00000000	    -32.02020179	      0.04913917	      0.04422992
     68.00000000	    -30.70707048	      0.04947033	      0.04452361
     69.00000000	    -29.39393916	      0.04978269	      0.04480734
     70.00000000	    -28.08080785	      0.05002114	      0.04503297
     71.00000000	    -26.76767653	      0.05018969	      0.04520692
     72.00000000	    -25.45454522	      0.05029968	      0.04534218
     73.00000000	    -24.14141390	      0.05036280	      0.04545209
     74.00000000	    -22.82828259	      0.05039109	      0.04555024
     75.00000000	    -21.51515127	      0.05039686	      0.04565044
     76.00000000	    -20.20201996	      0.05039271	      0.04576671
     77.00000000	    -18.88888864	      0.05034824	      0.04586037
     78.00000000	    -17.57575733	      0.05020474	      0.04585588
     79.00000000	    -16.26262602	      0.04998198	      0.04577172
     80.00000000	    -14.94949470	      0.04970187	      0.04562848
     81.00000000	    -13.63636339	      0.04938681	      0.04544676
     82.00000000	    -12.32323207	      0.04905948	      0.04524686
     83.00000000	    -11.01010076	      0.04874267	      0.04504838
     84.00000000	     -9.69696944	      0.04846290	      0.04487509
     85.00000000	     -8.38383813	      0.04832666	      0.04486849
     86.00000000	     -7.07070681	      0.04835120	      0.04506746
     87.00000000	     -5.75757550	      0.04850629	      0.04544873
     88.00000000	     -4.44444418	      0.04876207	      0.04598967
     89.00000000	     -3.13131287	      0.04908905	      0.04666835
     90.00000000	     -1.81818156	      0.04945812	      0.04746355
     91.00000000	     -0.50505024	      0.04984052	      0.04835469
     92.00000000	      0.80808107	      0.04941082	      0.04788305
     93.00000000	      2.12121239	      0.04851742	      0.04713947
     94.00000000	      3.43434370	      0.04714477	      0.04575134
     95.00000000	      4.74747502	      0.04514513	      0.04374454
     96.00000000	      6.06060633	      0.04287636	      0.04146290
     97.00000000	      7.37373765	      0.04104595	      0.03958095
     98.00000000	      8.68686896	      0.03966375	      0.03810054
     99.00000000	     10.00000028	      0.03871889	      0.03700456
